<svg xmlns="http://www.w3.org/2000/svg" xmlns:xlink="http://www.w3.org/1999/xlink" width="632" height="491" viewBox="0 0 632 491">
    <defs>
        <filter id="prefix__c" width="118.6%" height="129.1%" x="-9.3%" y="-11.7%" filterUnits="objectBoundingBox">
            <feOffset dy="10" in="SourceAlpha" result="shadowOffsetOuter1"/>
            <feGaussianBlur in="shadowOffsetOuter1" result="shadowBlurOuter1" stdDeviation="15"/>
            <feColorMatrix in="shadowBlurOuter1" values="0 0 0 0 0 0 0 0 0 0 0 0 0 0 0 0 0 0 0.15 0"/>
        </filter>
        <filter id="prefix__f" width="122.8%" height="136.8%" x="-11.4%" y="-13.1%" filterUnits="objectBoundingBox">
            <feOffset dy="10" in="SourceAlpha" result="shadowOffsetOuter1"/>
            <feGaussianBlur in="shadowOffsetOuter1" result="shadowBlurOuter1" stdDeviation="10"/>
            <feColorMatrix in="shadowBlurOuter1" values="0 0 0 0 0 0 0 0 0 0 0 0 0 0 0 0 0 0 0.1 0"/>
        </filter>
        <filter id="prefix__h" width="125.4%" height="231.8%" x="-12.7%" y="-52.7%" filterUnits="objectBoundingBox">
            <feOffset dy="10" in="SourceAlpha" result="shadowOffsetOuter1"/>
            <feGaussianBlur in="shadowOffsetOuter1" result="shadowBlurOuter1" stdDeviation="15"/>
            <feColorMatrix in="shadowBlurOuter1" values="0 0 0 0 0 0 0 0 0 0 0 0 0 0 0 0 0 0 0.15 0"/>
        </filter>
        <filter id="prefix__j" width="222.9%" height="222.9%" x="-61.4%" y="-49.1%" filterUnits="objectBoundingBox">
            <feOffset dy="10" in="SourceAlpha" result="shadowOffsetOuter1"/>
            <feGaussianBlur in="shadowOffsetOuter1" result="shadowBlurOuter1" stdDeviation="15"/>
            <feColorMatrix in="shadowBlurOuter1" values="0 0 0 0 0 0 0 0 0 0 0 0 0 0 0 0 0 0 0.15 0"/>
        </filter>
        <rect id="prefix__b" width="539" height="343.2" x="0" y="0" rx="4.4"/>
        <rect id="prefix__i" width="393.8" height="75.9" x="0" y="0" rx="4.4"/>
        <rect id="prefix__k" width="81.4" height="81.4" x="0" y="0" rx="7.04"/>
        <path id="prefix__a" d="M19.8 23.1H519.1999999999999V320.1H19.8z"/>
        <path id="prefix__g" d="M0 0H306.826V190.3H0z"/>
        <path id="prefix__l" d="M58.292 28.411c1.24 1.152 1.313 3.092.16 4.333l-19.927 21.46-.043.046-.036.036-.024.022-.033.034-.055.05.112-.106c-.054.054-.109.105-.166.154-.027.024-.055.048-.084.07-.02.016-.04.033-.061.048-.035.027-.069.052-.104.076l-.046.032c-.037.025-.074.048-.11.07l-.044.026c-.038.023-.077.045-.116.065l-.061.032-.076.037-.091.04-.098.04c-.023.01-.046.018-.07.026l-.094.033-.086.026c-.037.011-.075.021-.113.03l-.043.011c-.04.01-.079.018-.118.025l-.08.015-.09.014-.091.01-.08.008-.102.007-.1.003h-.063c-.039 0-.077-.001-.115-.003l-.086-.005-.085-.007-.08-.01c-.036-.004-.072-.009-.107-.015l-.08-.014c-.04-.007-.08-.016-.12-.025l-.04-.01c-.04-.009-.078-.02-.117-.03l-.079-.024-.088-.03-.084-.03-.093-.038-.067-.03c-.037-.016-.073-.033-.108-.05l-.065-.034c-.03-.015-.058-.031-.086-.047l-.077-.046c-.03-.018-.059-.036-.088-.056-.026-.016-.05-.033-.074-.05l-.06-.043c-.035-.026-.07-.053-.103-.08l-.054-.044-.079-.069-.032-.03-.045-.042-.037-.036-10.73-10.73c-1.197-1.198-1.197-3.139 0-4.336 1.198-1.197 3.139-1.197 4.336 0l8.48 8.48L53.96 28.573c1.152-1.241 3.092-1.313 4.333-.16z"/>
        <mask id="prefix__e" width="499.4" height="297" x="0" y="0" fill="#fff" maskContentUnits="userSpaceOnUse" maskUnits="objectBoundingBox">
            <use xlink:href="#prefix__a"/>
        </mask>
    </defs>
    <g fill="none" fill-rule="evenodd">
        <g>
            <g transform="translate(30 10) translate(33) translate(0 70.3)">
                <mask id="prefix__d" fill="#fff">
                    <use xlink:href="#prefix__b"/>
                </mask>
                <use fill="#000" filter="url(#prefix__c)" xlink:href="#prefix__b"/>
                <use fill="#FFF" xlink:href="#prefix__b"/>
                <rect width="299" height="6" x="114" y="185.7" fill="#E6E6E6" mask="url(#prefix__d)" rx="3"/>
                <rect width="220" height="6" x="143" y="201.7" fill="#E6E6E6" mask="url(#prefix__d)" rx="3"/>
                <g mask="url(#prefix__d)">
                    <g transform="translate(208.906 231.33)">
                        <rect width="121" height="31" x=".093" y=".37" fill="#F8AC3F" rx="3.808"/>
                        <text fill="#FFF" font-family="OpenSans-Bold, Open Sans" font-size="10.164" font-weight="bold">
                            <tspan x="15.4" y="18.7">Upload your form</tspan>
                        </text>
                    </g>
                </g>
                <rect width="253.893" height="30.467" x="128.573" y="-88.375" fill="#F8AC3F" mask="url(#prefix__d)" rx="3.808"/>
                <text fill="#FFF" font-family="OpenSans-Bold, Open Sans" font-size="10.156" font-weight="bold" mask="url(#prefix__d)">
                    <tspan x="147.615" y="-69.759">Browse for a Document on Your Computer</tspan>
                </text>
                <text fill="#444" font-family="Arial-BoldMT, Arial" font-size="11.996" font-weight="bold" mask="url(#prefix__d)">
                    <tspan x="-94.535" y="107.427">Add New Form</tspan>
                </text>
                <path d="M-103.866 119.753H0.10299999999999443V157.075H-103.866z" mask="url(#prefix__d)"/>
                <g stroke="#DDD" stroke-dasharray="4.665 1.999 4.665 1.999" stroke-width="2.2" mask="url(#prefix__d)">
                    <use mask="url(#prefix__e)" xlink:href="#prefix__a"/>
                </g>
            </g>
            <g transform="translate(30 10) translate(33) translate(116.6)">
                <use fill="#000" filter="url(#prefix__f)" xlink:href="#prefix__g"/>
                <use fill="#FFF" xlink:href="#prefix__g"/>
                <text fill="#626262" font-family="OpenSans-Bold, Open Sans" font-size="6.098" font-weight="bold">
                    <tspan x="107.484" y="29.107">[YOUR COMPANY NAME HERE]</tspan>
                </text>
                <text fill="#626262" font-family="OpenSans-Bold, Open Sans" font-size="6.098" font-weight="bold">
                    <tspan x="121.206" y="40.541">[COMPANY ADDRESS]</tspan>
                </text>
                <text fill="#626262" font-family="OpenSans-Bold, Open Sans" font-size="6.098" font-weight="bold">
                    <tspan x="105.96" y="51.976">[COMPANY CONTACT NUMBER]</tspan>
                </text>
                <text fill="#626262" font-family="OpenSans-Bold, Open Sans" font-size="6.098" font-weight="bold">
                    <tspan x="121.968" y="63.41">[COMPANY WEBSITE]</tspan>
                </text>
                <text fill="#626262" font-family="OpenSans-Bold, Open Sans" font-size="6.098" font-weight="bold">
                    <tspan x="22.869" y="83.992">[EMPLOYEE NAME]</tspan>
                </text>
                <text fill="#626262" font-family="OpenSans-Bold, Open Sans" font-size="6.098" font-weight="bold">
                    <tspan x="233.645" y="83.992">Date:</tspan>
                </text>
                <text fill="#626262" font-family="OpenSans-Bold, Open Sans" font-size="6.098" font-weight="bold">
                    <tspan x="233.645" y="98.476">Invoice #:</tspan>
                </text>
                <text fill="#626262" font-family="OpenSans-Bold, Open Sans" font-size="6.098" font-weight="bold">
                    <tspan x="233.645" y="109.91">For:</tspan>
                </text>
                <text fill="#626262" font-family="OpenSans-Bold, Open Sans" font-size="6.098" font-weight="bold">
                    <tspan x="22.869" y="98.476">[EMPLOYEE ID]</tspan>
                </text>
                <text fill="#626262" font-family="OpenSans-Bold, Open Sans" font-size="6.098" font-weight="bold">
                    <tspan x="23.631" y="143.165">[CONTACT AT COMPANY NAME]</tspan>
                </text>
                <text fill="#626262" font-family="OpenSans-Bold, Open Sans" font-size="6.098" font-weight="bold">
                    <tspan x="23.631" y="160.124">[COMPANY NAME]</tspan>
                </text>
                <text fill="#626262" font-family="OpenSans-Bold, Open Sans" font-size="6.098" font-weight="bold">
                    <tspan x="23.631" y="176.702">[STREET ADDRESS]</tspan>
                </text>
                <text fill="#1973E7" font-family="OpenSans-Bold, Open Sans" font-size="12.197" font-weight="bold">
                    <tspan x="241.268" y="28.246">INVOICE</tspan>
                </text>
                <path fill="#1973E7" d="M23.631 118.919H283.956V132.259H23.631z"/>
                <text fill="#FFF" font-family="OpenSans-Bold, Open Sans" font-size="6.861" font-weight="bold">
                    <tspan x="28.586" y="127.825">Bill To:</tspan>
                </text>
                <path stroke="#F7F7F7" stroke-linecap="square" d="M23.631 149.033L283.957 149.033M23.631 165.611L283.957 165.611"/>
            </g>
            <path fill="#FFF" d="M41.8 189.2H501.6V245.29999999999998H41.8z" transform="translate(30 10) translate(33)"/>
            <text fill="#444" font-family="ArialMT, Arial" font-size="17.6" transform="translate(30 10) translate(33)">
                <tspan x="167" y="237">Drag and Drop Documents</tspan>
            </text>
            <path stroke="#F8AC3F" stroke-dasharray="5" stroke-linecap="square" stroke-width="1.1" d="M96.25 189.2L442.816 189.2" transform="translate(30 10) translate(33)"/>
        </g>
        <g transform="translate(30 10) translate(105.6 365.1)">
            <use fill="#000" filter="url(#prefix__h)" xlink:href="#prefix__i"/>
            <use fill="#FFF" xlink:href="#prefix__i"/>
            <path stroke="#F8AC3F" stroke-width="1.1" d="M10.714 10.714H90.926V65.516H10.714z"/>
            <g>
                <path fill="#017CE4" d="M96.073 34.662l-4.05-2.678v3.003l13.516 8.21 13.518-8.21v-3.003l-4.051 2.678-9.467-7.955-9.466 7.955zM128.44 8.919L114.95 0l-9.44 7.979 13.602 8.506 9.327-7.566zm-13.489 24.05l13.489-8.92-9.327-7.564-13.602 8.506 9.44 7.978zm-18.878 0l9.438-7.978-13.6-8.506-9.329 7.564 13.49 8.92zm0-32.969l-13.49 8.919 9.328 7.566 13.6-8.506L96.073 0z" transform="translate(26.68 16.517)"/>
                <path fill="#0080C4" d="M242.99 38.037l-7.67-10.317 7.67-10.318-.002-.001c.948-1.33.674-3.184-.634-4.171-1.306-.989-3.152-.737-4.156.55l-6.62 8.905-6.62-8.905v.001c-1.004-1.288-2.85-1.538-4.158-.551-1.306.988-1.582 2.842-.631 4.17l-.003.002 7.67 10.318-7.67 10.317.003.002c-.95 1.329-.675 3.182.631 4.17 1.308.988 3.154.736 4.157-.55h.002l6.619-8.904 6.62 8.905v-.002c1.004 1.289 2.85 1.539 4.156.552 1.308-.987 1.582-2.842.634-4.171l.001-.002zm-35.121-1.288c-4.961 0-8.982-4.048-8.982-9.04 0-4.994 4.02-9.042 8.982-9.042 4.961 0 8.982 4.048 8.982 9.041s-4.02 9.041-8.982 9.041zm-26.458 0c-4.961 0-8.983-4.048-8.983-9.04 0-4.994 4.022-9.042 8.983-9.042s8.982 4.048 8.982 9.041-4.02 9.041-8.982 9.041zm26.458-24.113c-5.734 0-10.713 3.245-13.228 8.008-2.517-4.763-7.496-8.008-13.23-8.008-3.37 0-6.48 1.121-8.983 3.013V2.954C172.392 1.318 171.065 0 169.432 0c-1.636 0-2.962 1.318-2.996 2.954h-.002v25.005h.007c.133 8.207 6.782 14.821 14.969 14.821 5.734 0 10.713-3.245 13.23-8.008 2.515 4.763 7.494 8.008 13.228 8.008 8.271 0 14.975-6.747 14.975-15.072 0-8.324-6.704-15.072-14.975-15.072z" transform="translate(26.68 16.517)"/>
                <path fill="#074BB0" d="M292.249 36.855c.069-.068-.052-.466-.267-.886-.571-1.11-.983-3.051-.984-4.637-.002-4.358 2.644-7.763 7.175-9.237 1.464-.477 1.807-.686 1.807-1.107 0-.592 1.081-2.976 1.928-4.254 1.19-1.792 2.765-3.168 4.724-4.127 4.905-2.398 10.674-1.64 14.209 1.867l1.253 1.245 1.374-.355c.756-.196 1.622-.362 1.923-.368.693-.014.723-.503.135-2.246-1.836-5.459-6.802-9.035-12.565-9.05-2.063-.005-3.786.377-5.445 1.202-1.536.766-3.413 2.27-4.34 3.477-1.572 2.043-1.487 1.98-2.23 1.686-2.343-.93-5.047-1.092-7.2-.432-3.986 1.22-6.84 5.023-7.01 9.34-.027.694-.113 1.363-.19 1.487-.076.122-.562.328-1.08.457-2.45.613-4.402 2.17-5.421 4.329-.484 1.022-.535 1.353-.535 3.414 0 2.167.032 2.346.639 3.572 1.071 2.16 3.354 4.047 5.508 4.555.78.183 6.417.243 6.592.068zm48.212-2.948c.277-3.563-1.25-5.986-4.497-7.14l-1.137-.404-.127-1.543c-.463-5.64-6.22-9.015-11.993-7.033l-1.192.41-1.333-1.388c-2.42-2.522-4.151-3.268-7.622-3.287-2.442-.013-3.462.213-5.482 1.218-1.93.959-3.736 3.304-4.71 6.116-.216.62-.392 1.318-.392 1.553 0 .747-.454 1.07-1.93 1.371-2.967.604-5.221 2.247-6.072 4.424-.348.887-.449 1.549-.446 2.93.006 4.319 2.063 7.229 5.752 8.143.768.191 5.207.24 19.172.213l18.173-.034.818-.434c1.739-.924 2.837-2.783 3.018-5.115z" transform="translate(26.68 16.517)"/>
                <path fill="#444" d="M44.468 25.41V6.352c0-2.286-1.525-3.811-3.812-3.811H7.623c-2.287 0-3.812 1.525-3.812 3.812v18.93L0 38.115l1.27 2.541H47.01l1.27-2.541-3.812-12.705zm-25.41 12.705l1.27-5.082h7.623l1.27 5.082H19.058zM40.656 25.41H7.623V6.352h33.033V25.41zm-18.803-7.369c.127.254.254.381.508.381s.508-.127.508-.38l.381-1.144 2.795 2.795c.254.254.635.254.763 0l.635-.636c.254-.254.254-.508 0-.762L24.648 15.5l1.143-.381c.254 0 .381-.254.381-.508s-.127-.508-.38-.508l-5.464-2.033c-.254-.127-.381 0-.635.127-.127.127-.254.38-.127.635l2.287 5.21z" transform="translate(26.68 16.517)"/>
            </g>
        </g>
        <g transform="translate(30 10) translate(0 133)">
            <use fill="#000" filter="url(#prefix__j)" xlink:href="#prefix__k"/>
            <use fill="#FFF" xlink:href="#prefix__k"/>
            <use fill="#03BC80" fill-rule="nonzero" stroke="#FFF" stroke-width="2.033" xlink:href="#prefix__l"/>
        </g>
    </g>
</svg>
