<svg xmlns="http://www.w3.org/2000/svg" width="342" height="224" viewBox="0 0 342 224">
    <g fill="none" fill-rule="evenodd">
        <path fill="#78ADFF" d="M0 219.197L253.081 219.197 253.081 0 0 0z"/>
        <path fill="#FFF" d="M153.294 137.1c.916.34 1.342.034 1.593-.225 4.071-4.254-1.695-24.197-13.398-39.55-2.534-3.328-6.174-7.46-10.449-10.491 3.398 24.483 16.24 48.052 22.254 50.267zm-29.354 33.818c-30.988-17.869-58.251-23.492-85.811-17.681l-.29-1.378c27.333-5.76 54.354-.443 84.86 16.734-5.686-12.202-32.73-73.268-10.567-85.332 6.06-3.295 11.973-2.163 17.148.774-.146-1.372-.262-2.747-.341-4.119-.92-15.524 2.19-36.172 22.225-46.39 6.658-3.397 13.577-3.535 20.556-.42 38.43 17.172 67.877 126.456 69.113 131.1l-1.36.364c-.3-1.13-30.509-113.278-68.325-130.177-6.575-2.94-13.087-2.807-19.345.389-19.357 9.87-22.356 29.946-21.461 45.052.101 1.705.255 3.421.459 5.13 4.875 3.181 8.993 7.818 11.805 11.507 11.618 15.24 18.327 36.123 13.293 41.376-.553.579-1.538 1.15-3.092.573-6.55-2.41-20.122-26.855-23.324-52.622-5.034-3.113-10.82-4.488-16.68-1.3C89.852 96.99 124.57 169.273 124.923 170l1.001 2.061-1.983-1.143z"/>
        <path fill="#FFDDCD" d="M268.803 156.447c-10.97-14.5-22.258-23.24-33.851-26.414-8.075-2.213-16.6 1.317-20.501 8.733-7.943 15.1-3.538 41.087-2.41 64.19l-16.342 16.453 34.402-.364c6.193-19.981 6.325-41.115 1.29-64.535 7.184 18.977 16.403 35.071 27.093 49.09l10.32-47.153z"/>
        <path fill="#FF8206" d="M195.278 219.693l15.923-16.546 22.78.845c-.807 5.422-1.995 10.017-3.6 15.194l-35.103.507z"/>
        <path fill="#FFBAB4" d="M270.576 83.102c18.383 18.681 29.19 36.01 44.67 67.014 6.97 12.764 26.558 36.413 26.319 37.548-.465 2.195-1.728.132-3.255-1.397-.291-.292-.93-.419-.583-.193 2.465 1.598 3.172 2.48 3.172 3.383 0 1.185-3.106.088-6.217-2.631-.253-.22-.105-.127.044.174 1.001 2.06 3.716 2.06 3.186 3.523-.234.645-2.089.188-3.954-.829-1.235-.67-2.401-1.46-3.549-2.27-.027-.02-.038-.025-.033-.014 0 0 2.545 2.513 1.96 2.78-1.462.664-4.837-1.314-4.837-1.314-12.355-6.163-21.937-16.095-29.992-28.1l-11.932-51.35-14.999-26.324z"/>
        <path fill="#2E73DF" d="M315.245 150.117c1.686 3.088 6.864 4.366 9.838 8.4-2.182 6.725-9.956 13.3-16.73 15.94-3.93-4.13-7.52-8.725-10.847-13.681l-11.931-51.353-15-26.32c18.384 18.681 29.19 36.01 44.67 67.014"/>
        <path fill="#0029B7" d="M302.505 110.555c-10.98-1.791-20.968 3.138-29.937 15.009 12.793-.14 30.366-6.182 29.937-15.01M226.103 86.094c-2.608-5.006-16.663 2.173-22.468 8.628 10.454-.014 21.808.303 22.468-8.628"/>
        <path fill="#FFBAB4" d="M263.499 64.81l-.823 6.18.966.322 1.29 12.273c-.985 7.45-2.297 13.02-2.294 18.703.002 5.177 1.72 10.191 4.657 14.456 2.81 4.071 5.324 8.515 7.467 13.436 1.48 3.396 1.94 7.187 1.19 10.818-1.49 7.24-5.815 12.43-12.954 15.58-25.28 11.752-45.192 24.18-46.328 38.957-.393 5.075 1.81 9.976 5.599 13.367 16.478 14.74 43.109 11.94 75.56 10.331l23.624 4.604-13.304-25.921c-29.72-6.805-49.454-5.072-63.212-3.226l30.083-1.485c9.706-.477 18.083-7.12 20.586-16.525 1.527-5.727 2.083-12.391 2.223-19.458-1.284-24.164-7.738-48.977-28.38-75.574l-.748-3.366c-.99-4.46-1.164-7.182-.451-11.692.404-2.562-.303-3.064-1.477-3.54-1.365-.549-2.895.336-3.274 1.76"/>
        <path fill="#FF8206" d="M287.505 48.821c2.68-1.395 6.529-1.364 10.135.368 5.284 2.538 8.042 7.762 6.16 11.668-.637 1.324-1.732 2.317-3.098 2.965.449 2.513.19 5.01-.9 7.273-3.541 7.349-14.469 9.435-24.41 4.66-9.94-4.774-15.128-14.601-11.588-21.95 3.457-7.174 13.955-9.329 23.7-4.984"/>
        <path fill="#01001D" d="M262.675 70.99l2.096-.02c.397-.589.944-1.44 1.01-1.278.066.166-.333.965-.333.965-.283.749-.919 1.339-1.708 1.482-.006 0-.011 0-.017.003l-.08-.83-.968-.322z"/>
        <path fill="#2E73DF" d="M264.726 81.622l4.454-1.179.267 1.207c4.215 5.424 9.75 10.819 13.709 15.502 1.771 2.097 17.001 7.389 19.348 13.403-19.189-1.292-25.104 10.568-29.934 15.009-1.61-3.132-3.373-6.064-5.274-8.821-2.938-4.265-4.655-9.276-4.658-14.456-.005-5.683 1.307-11.254 2.295-18.7l-.207-1.965z"/>
        <path fill="#0029B7" d="M269.77 98.08c-.253 6.49-1.441 12.03-3.87 16.309-.308-.433-.856-1.56-1.409-2.706l5.28-13.604z"/>
        <path fill="#2E73DF" d="M214.45 138.766c3.9-7.416 12.43-10.945 20.504-8.733 11.592 3.174 22.88 11.915 33.849 26.414l-10.32 47.154c-10.688-14.02-19.906-30.114-27.092-49.09 3.637 16.918 4.561 33.004 2.468 48.17h-21.833c-1.15-23.031-5.485-48.876 2.424-63.915"/>
        <path fill="#0029B7" d="M266.847 153.932l-30.509 12.389c.531 1.272 1.098 2.482 1.665 3.658l29.133-15.61-.289-.437z"/>
        <path fill="#2E73DF" d="M262.916 156.602c5.312-2.339 9.06-5.81 11.25-10.413 7.867 1.176 15.626 1.374 22.856.525 7.23-.848.67 7.117.857 10.588-.14 7.07-.605 14.66-2.129 20.39-2.3 8.628-9.664 14.796-19.123 15.824 6.845.358 13.695.956 22.251 2.529l.534 23.541-1.665-.325c-32.448 1.609-59.079 4.408-75.558-10.331-3.79-3.391-5.991-8.293-5.6-13.367 1.135-14.78 21.048-27.205 46.327-38.96z"/>
        <path fill="#0029B7" d="M247.972 193.166c7.526-1.923 16.184-2.678 27.87.113-8.528-.405-17.884-.022-27.708.81-.572.05-.718-.78-.162-.923"/>
        <path fill="#FF8206" d="M308.15 197.917l13.304 25.919-20.165-3.929-1.073-23.654c2.56.488 5.205 1.039 7.934 1.664"/>
        <path fill="#FFF" d="M202.175 63.912L204.4 69.229 206.092 68.342 203.451 62.347z"/>
        <path fill="#FFBAB4" d="M267.165 82.273c-13.338 10.073-25.456 20.55-32.966 29.823l-22.144-35.242c-.6-1.044-2.038-4.432-2.888-5.286 0 0-2.41-3.81-3.47-4.414 0 0-.833-1.545-1.477-.898-.646.645.933 1.758.29 2.405-.535.532-.68-.785-1.618-1.846-.21-.237-1.596-3.24-2.243-2.595-.498.502-.071 2.07.606 4.022.035.108-.116.177-.174.078l-1.925-3.75c-2.58-1.292-.07 5.237-.713 5.237-.446 0-.182-4.138-1.28-3.44-1.094.696-.178 6.253-.197 5.735-.077-1.9-.193-3.273-.749-3.196-1.31.193-.33 4.791 1.395 10.243.405 1.279 1.571 4.097 2.033 5.356 8.182 22.232 17.425 40.853 30.072 47.881 2.891 1.606 6.322 1.964 9.461.917 9.436-3.143 20.418-9.57 27.555-24.072 7.155-11.004 5.958-20.61.432-26.958"/>
        <path fill="#2E73DF" d="M226.046 86.008l9.222 24.108c3.307 1.543.366.27.514.086 7.448-9.094 18.003-18.618 31.038-28.481.132-.102.325-.083.435.047 5.38 6.364 7.518 16.667.459 27.533-.006.008-.011.02-.017.027-7.108 14.436-18.03 20.866-27.439 24.026-3.2 1.072-8.454 1.394-11.4-.256-10.473-5.873-17.824-20.083-24.96-37.324-.058-.146.951-.603 1.086-.68.955-.535 4-2.703 11.926-2.196 4.4.28 7.97-3.251 9.136-6.89"/>
    </g>
</svg>
