<svg xmlns="http://www.w3.org/2000/svg" width="390" height="393" viewBox="0 0 390 393">
    <defs>
        <radialGradient id="prefix__b" cx="28.638%" cy="30.341%" r="118.563%" fx="28.638%" fy="30.341%" gradientTransform="scale(1 .97059) rotate(37.253 .273 .308)">
            <stop offset="0%" stop-color="#24416B"/>
            <stop offset="46.355%" stop-color="#0B2B5B"/>
            <stop offset="100%" stop-color="#0F3163"/>
        </radialGradient>
        <filter id="prefix__a" width="100.6%" height="100.5%" x="-.3%" y="-.3%" filterUnits="objectBoundingBox">
            <feGaussianBlur in="SourceGraphic"/>
        </filter>
    </defs>
    <g fill="none" fill-rule="evenodd">
        <path stroke="#446FB0" stroke-width="2" d="M234.734 365C330.125 365 363 280.314 363 179.798 363 79.282 330.125 1 234.734 1 139.342 1 9 74.238 9 174.754 9 275.27 139.342 365 234.734 365z" filter="url(#prefix__a)"/>
        <path fill="url(#prefix__b)" d="M238.473 393C336.29 393 370 305.987 370 202.71 370 99.433 336.29 19 238.473 19 140.656 19 7 94.25 7 197.527 7 300.805 140.656 393 238.473 393z" transform="matrix(1 0 0 -1 0 412)"/>
        <g fill-rule="nonzero" stroke="#2E73DF" stroke-linecap="round" stroke-width="3">
            <path d="M58.346 90.385c-14.74-8.43-28.689-20.319-41.847-35.667C-3.238 31.696-3.216 9.302 5.865 1.742c4.884-4.066 23.632-1.34 37.542 11.645 11.951 11.156 19.48 31.311 21.36 44.864 1.802 12.991-.339 23.703-6.42 32.134z" transform="matrix(-1 0 0 1 388 249)"/>
            <path d="M3.846 5.77c14.84 7.49 27.305 18.527 37.396 33.111 10.091 14.585 16.215 31.753 18.373 51.504M38.462 9.615c4.965 4.504 8.005 9.398 9.119 14.68 1.114 5.284.352 11.929-2.285 19.936" transform="matrix(-1 0 0 1 388 249)"/>
            <path d="M51.923 65.385c-11.307-2.35-19.71-4.68-25.208-6.99-5.497-2.31-9.915-4.467-13.253-6.472M32.692 28.077c-5.344 1.165-11.519 1.006-18.523-.477S2.442 23.968 0 21.154" transform="matrix(-1 0 0 1 388 249)"/>
        </g>
        <g fill-rule="nonzero" stroke-linecap="round" stroke-width="3">
            <g stroke="#2E73DF">
                <path d="M72.071 111.027c-18.207-10.355-35.437-24.96-51.69-43.812C-4 38.935-3.973 11.426 7.243 2.14 13.278-2.855 36.435.493 53.618 16.444c14.763 13.704 24.063 38.463 26.385 55.11 2.225 15.959-.419 29.116-7.932 39.473z" transform="translate(5 252)"/>
                <path d="M4.245 5.864c18.053 9.298 33.217 23 45.493 41.107 12.276 18.107 19.727 39.42 22.352 63.94" transform="translate(5 252)"/>
                <path d="M47.38 11.765c5.659 5.692 9.123 11.877 10.392 18.554 1.27 6.677.402 15.075-2.603 25.194M65.095 80.24c-13.989-2.92-24.384-5.815-31.186-8.685-6.801-2.87-12.267-5.551-16.396-8.043M39.856 35.18c-6.515 1.524-14.043 1.315-22.582-.625C8.734 32.615 2.977 29.804 0 26.123" transform="translate(5 252)"/>
            </g>
            <g stroke="#FFF">
                <path d="M29.173 45.192C21.803 40.977 14.83 35.033 8.25 27.36-1.62 15.85-1.608 4.651 2.932.871c2.443-2.033 11.816-.67 18.772 5.822 5.975 5.578 9.74 15.656 10.68 22.433.9 6.495-.17 11.85-3.21 16.066z" transform="translate(5 252) matrix(-1 0 0 1 114 56)"/>
                <path d="M1.923 2.885c7.42 3.745 13.652 9.263 18.698 16.556 5.045 7.292 8.108 15.876 9.187 25.751M19.23 4.808c2.484 2.252 4.003 4.698 4.56 7.34.557 2.641.177 5.964-1.142 9.967" transform="translate(5 252) matrix(-1 0 0 1 114 56)"/>
                <path d="M25.962 32.692c-5.654-1.174-9.855-2.34-12.604-3.494-2.75-1.155-4.958-2.234-6.627-3.236M16.346 14.039c-2.672.582-5.76.503-9.261-.239C3.582 13.058 1.22 11.984 0 10.577" transform="translate(5 252) matrix(-1 0 0 1 114 56)"/>
            </g>
        </g>
        <ellipse cx="311.5" cy="19" fill-rule="nonzero" stroke="#FFF" stroke-width="2" rx="18.5" ry="18"/>
        <circle cx="8.654" cy="214.654" r="7.654" fill-rule="nonzero" stroke="#FF8206" stroke-width="2"/>
        <circle cx="120.654" cy="74.654" r="7.654" fill-rule="nonzero" stroke="#2E73DF" stroke-width="2"/>
        <g transform="translate(78 40)">
            <path fill="#FFCAB3" d="M96.751 107.027c-26.244 19.858-26.876 25.769-37.966 45.285-2.476 4.356-9.448 14.599-12.376 18.626l-36.048 49.469c-1.204 1.65-2.023 3.6-2.327 5.66-2.91 19.79 2.94 30.82 11.044 39.6l79.097-80.74-1.424-77.9"/>
            <path fill="#FFCAB3" d="M143.753 38.363c-1.927 13.156-2.512 26.479-1.332 39.723.312 3.503.975 10.104.975 10.104 1.375 5.7 23.205 14.882 23.205 14.882l9.362 70.192 2.382 127.363H99.362l-6.969-126.273 4.358-67.327s19.036-14.29 18.456-19.433L119 50.536l-4.016-.223 6.192-25.22c2.176-6.403 9.221-9.92 15.484-7.374 6.595 2.68 8.704 9.637 7.093 20.644"/>
            <path fill="#FF8206" d="M142.306 10.724c-.962-4.07-6.438-5.806-7.765-2.016l-.025.073c-1.339-1.11-2.595-1.872-3.769-2.285-2.002-.704-4.017.631-4.43 2.873-1.878-.615-2.122-.658-3.68-.819-2.543-.261-3.966 3.53-2.053 5.355 1.425 1.36 1.924 1.505 4.69 1.13-.964.079-1.53.012-2.218.165-2.614.582-2.87 5.278.747 6.63 2.748 1.026 4.105-.77 4.94-2.195.308 1.303 4.816.214 4.816.214.73 2.595 2.214 3.496 4.294 3.048-.823 1.945 1.025 6.747 2.462 5.847.859-.537.275-.182.509-1.868 3.198-2.08 3.096.718 1.313 5.648.682.356 4.905.55 4.22-2.34 2.59-1.366 2.78-3.762.3-5.309 3.679-.71 5.262-5.515.436-8.232 3.238-2.086.015-8.009-3.115-7.111-.842.242-1.672 1.192-1.672 1.192"/>
            <path fill="#2E73DF" d="M175.963 173.264l-9.362-70.192s-21.83-9.182-23.205-14.882c0 0-.295-2.935-.584-5.929-8.88 1.641-17.819 2.065-26.933-1.232l-.672 6.565c.58 5.143-18.456 19.433-18.456 19.433l-4.358 67.327 6.97 126.273h78.982l-2.382-127.363"/>
            <path fill="#2E73DF" d="M96.751 107.027c-26.244 19.858-26.876 25.769-37.966 45.285-2.476 4.356-9.448 14.598-12.376 18.626l-7.265 9.969c11.97 6.55 29.177 17.992 37.953 25.54l21.078-21.52-1.424-77.9"/>
            <path fill="#78ADFF" d="M32.664 282.297L96.495 266.217 65.089 158.627 0 177.707z"/>
            <ellipse cx="43.5" cy="209.5" fill="#FFF" rx="9.5" ry="10.5"/>
            <path fill="#FFCAB3" d="M7.034 234.597c6.571-1.5 22.48-.31 22.706.78.746 3.58-11.69 4.84-10.585 4.79 0 0 14.164-4.42 14.611-1.43.293 1.95-4.017 5.7-7.382 7.61-2.129 1.2-1.045.89-3.299 1.84-2.517 1.07-4.807 1.48-3.632 1.72.332.07 15.221-5.52 14.425-2.33-.796 3.19-13.715 10.82-13.715 10.82-1.029.1 8.645-5.15 8.496-2.47-.15 2.69-9.545 10.67-9.545 10.67-7.539-6.91-14.182-14.81-12.08-32"/>
            <path fill="#060022" d="M114.968 50.473l9.886-.481c1.632.021 3.148-.841 3.965-2.254l2.474-4.275c.413-.714 1.506-.254 1.285.541l-1.529 5.493c-.63 2.271-2.41 4.042-4.682 4.663l-7.789 2.131.268-5.072-3.878-.746"/>
            <path fill="#FFCAB3" d="M165.226 102.695l7.01 76.618 32.66 49.014c-5.858.05-8.617-.57-19.25-2.09-15.543-2.23-35.299-5.84-56.68-9.99-5.092-.98-10.134-1.61-15.078-1.53-6.357.1-13.047.18-18.978 3.39 0 0-12.262 8.47-11.035 11.79 1.227 3.32 11.073-5.44 11.1-5.26.014.11-13.897 15.55-12.965 16.97 3.095 3.62 19.542-12.63 19.82-10.83.276 1.8-21.257 11.64-15.122 11.95 2.983.15 20.31-2.72 17.076.07-.855.74-7.68.67-7.68 3.43 0 2.77 12.118 2.45 15.136 3.36 42.158 12.72 95.34 29.4 116.6 29.93 11.281.29 22.976-1.66 27.226-16.43 3.364-11.69-6.849-126.597-89.84-160.392"/>
            <path fill="#2E73DF" d="M165.114 102.477l-4.362 77.508 35.26 34.792c15.95-7.5 32.407-12.32 49.271-15.003-11.568-36.638-35.113-78.95-80.169-97.297"/>
            <path fill="#060022" d="M176.56 195.607l-9.843-8.953c2.595 10.913 5.732 20.543 10.141 27.153l-.298-18.2"/>
        </g>
        <g>
            <path fill="#FFF" d="M41.33 36.121c8.396 17.268-8.398 19.081-17.803 11.976C17.257 43.361 9.415 31.967 0 13.916L41.33 0C47.56 17.67 53.116 27.898 58 30.681" transform="translate(20 89)"/>
            <path fill="#C1DAFF" d="M47.166 50.018c17.713-5.05 27.917-8.909 30.612-11.578 3.007-2.977 3.902-8.124 2.684-15.44L40.715 35.548c3.835 10.848.824 16.271-9.033 16.271h2.598c4.358 0 8.695-.606 12.886-1.8z" transform="translate(20 89)"/>
            <path fill="#000" fill-rule="nonzero" d="M15.749 23.512L39.813 15.253 39.488 14.308 15.424 22.566zM18.749 27.512L42.813 19.253 42.488 18.308 18.424 26.566zM21.749 31.512L45.813 23.253 45.488 22.308 21.424 30.566z" transform="translate(20 89)"/>
        </g>
        <circle cx="94.5" cy="226.5" r="4.5" fill="#242424"/>
    </g>
</svg>
