<svg xmlns="http://www.w3.org/2000/svg" width="16" height="16"><path fill="#127DF2" d="M8 0C3.589 0 0 3.589 0 8s3.589 8 8 8 8-3.589 8-8-3.589-8-8-8zm0 14c-3.309 0-6-2.691-6-6s2.691-6 6-6 6 2.691 6 6-2.691 6-6 6zm0-4a1 1 0 11.002 1.998A1 1 0 018 10zm2.542-5.037c-.11-.121-.595-.503-.786-.59-.191-.087-.738-.256-1.215-.374H7.517c-.422.111-1.255.434-1.411.552-.156.118-.616.593-.71.761-.092.168-.331.872-.354 1.162C5.019 6.764 5.45 7 6 7s1-.378 1-.599c0-.221.059-.601.07-.636a1.24 1.24 0 01.268-.281c.08-.049.301-.141.491-.205h.544c.24.133.641.533.666.693.025.16.025.556-.01.638a1.926 1.926 0 01-.271.395 7.388 7.388 0 01-.419.333c-.086.06-.387.282-.47.358a4.117 4.117 0 00-.414.486c-.065.108-.28.5-.342.613C7.051 8.908 7.45 9 8 9s1.029-.238 1.025-.262c-.004-.024.187-.244.271-.31.085-.066.395-.285.494-.347a5.74 5.74 0 00.519-.375c.088-.082.361-.404.424-.519a2.9 2.9 0 00.189-.467c.042-.141.042-.924 0-1.055-.042-.131-.27-.581-.38-.702z"/></svg>