<svg xmlns="http://www.w3.org/2000/svg" width="60" height="60"><defs><linearGradient id="a" x1="50%" x2="50%" y1="0%" y2="100%"><stop offset="0%" stop-color="#199ADF"/><stop offset="100%" stop-color="#0073B1"/></linearGradient></defs><g fill="none" fill-rule="evenodd"><rect width="60" height="60" fill="url(#a)" rx="12"/><path d="M13.432 23.082h7.512v22.904h-7.512zm32.164 2.092c-1.578-1.749-3.665-2.623-6.26-2.623-.956 0-1.825.119-2.607.358-.781.239-1.44.574-1.98 1.005-.538.432-.967.832-1.286 1.202a9.87 9.87 0 00-.888 1.223v-3.257h-7.489l.023 1.11c.016.74.023 3.02.023 6.84 0 3.822-.015 8.806-.045 14.954h7.488V33.205c0-.786.083-1.41.25-1.872.32-.787.8-1.445 1.446-1.976.645-.532 1.446-.798 2.402-.798 1.305 0 2.265.458 2.88 1.375.614.917.921 2.184.921 3.802v12.25h7.489V32.858c0-3.375-.789-5.937-2.367-7.685zM17.234 12.057c-1.26 0-2.28.374-3.062 1.121C13.391 13.926 13 14.87 13 16.01c0 1.125.38 2.065 1.138 2.82.759.755 1.76 1.133 3.005 1.133h.045c1.275 0 2.303-.378 3.085-1.133.781-.755 1.164-1.695 1.149-2.82-.015-1.14-.402-2.083-1.16-2.83-.76-.748-1.769-1.122-3.028-1.122z" fill="#FFF" fill-rule="nonzero"/></g></svg>