<svg xmlns="http://www.w3.org/2000/svg" width="118" height="30" viewBox="0 0 118 30">
    <g fill="none">
        <path fill="#FFF" d="M9 9.773c0 .797-.202 1.505-.606 2.123-.405.618-.988 1.099-1.75 1.441-.761.343-1.655.515-2.68.515-.856 0-1.573-.06-2.153-.18-.58-.12-1.184-.33-1.811-.629V9.949c.662.34 1.35.605 2.065.796.715.19 1.372.285 1.97.285.515 0 .893-.09 1.133-.268.24-.179.36-.408.36-.69 0-.176-.048-.33-.145-.461-.096-.132-.252-.265-.466-.4-.213-.135-.783-.41-1.709-.826-.838-.381-1.466-.75-1.885-1.108-.42-.357-.73-.767-.932-1.23C.19 5.584.088 5.037.088 4.403c0-1.183.43-2.106 1.292-2.768C2.24.973 3.425.642 4.93.642c1.33 0 2.687.307 4.07.922L7.937 4.245c-1.202-.55-2.239-.826-3.112-.826-.451 0-.78.079-.984.237-.205.158-.308.355-.308.59 0 .251.13.477.391.676.261.2.969.562 2.123 1.09 1.107.498 1.876 1.032 2.307 1.604.43.571.646 1.29.646 2.157zm6.592 4.079c-1.658 0-2.946-.441-3.863-1.323-.917-.882-1.375-2.137-1.375-3.766 0-1.682.424-2.972 1.274-3.872.85-.9 2.062-1.349 3.639-1.349 1.5 0 2.658.391 3.476 1.173.817.783 1.226 1.909 1.226 3.38v1.529h-6.144c.024.557.227.993.611 1.31.384.316.907.474 1.569.474.603 0 1.159-.057 1.665-.171.507-.114 1.057-.31 1.648-.585v2.47c-.539.275-1.095.466-1.67.571-.574.106-1.26.159-2.056.159zM15.39 5.88c-.405 0-.743.127-1.015.382-.273.255-.433.655-.48 1.2h2.954c-.012-.48-.148-.864-.41-1.151-.26-.288-.61-.431-1.05-.431zm9.958 7.796H21.91V0h3.437v13.676zm5.818 0h-3.437V0h3.437v13.676z" transform="translate(0 .324)"/>
        <path fill="#C4DBFF" d="M39.349 13.676L36.72 4.42h-.08c.124 1.576.185 2.8.185 3.674v5.58H33.75V.827h4.623l2.68 9.123h.071L43.752.826h4.632v12.85h-3.19V8.042c0-.293.004-.618.013-.976.008-.357.048-1.233.118-2.628h-.079l-2.593 9.238H39.35zm10.397-9.958h3.621l1.688 5.713c.082.298.137.659.167 1.08h.07c.047-.404.117-.758.21-1.063l1.732-5.73h3.507l-3.937 10.59c-.504 1.348-1.124 2.3-1.86 2.857-.735.557-1.694.835-2.878.835-.457 0-.925-.05-1.406-.15v-2.698c.31.07.665.106 1.064.106.304 0 .57-.059.8-.176.228-.117.427-.283.597-.497.17-.213.352-.564.545-1.05l-3.92-9.817zm15.803 9.958h-3.42V.826h7.595v2.786h-4.175v2.452h3.85v2.787h-3.85v4.825zM81.14 8.675c0 1.629-.438 2.899-1.314 3.81-.876.911-2.102 1.367-3.679 1.367-1.511 0-2.714-.466-3.607-1.398-.894-.932-1.34-2.191-1.34-3.78 0-1.622.437-2.883 1.313-3.783.876-.9 2.105-1.349 3.687-1.349.979 0 1.843.208 2.593.624.75.416 1.329 1.012 1.736 1.789.407.776.61 1.683.61 2.72zm-6.452 0c0 .855.115 1.507.343 1.955.229.449.613.673 1.152.673.533 0 .91-.224 1.129-.673.22-.448.33-1.1.33-1.955 0-.85-.112-1.491-.334-1.925-.223-.434-.604-.65-1.143-.65-.527 0-.905.215-1.134.646-.228.43-.343 1.073-.343 1.929zm14.423-5.133c.3 0 .583.023.853.07l.193.035-.307 3.244c-.282-.07-.671-.106-1.17-.106-.75 0-1.294.172-1.634.514-.34.343-.51.837-.51 1.481v4.896h-3.436V3.718h2.557l.536 1.59h.167c.287-.527.687-.953 1.2-1.278.513-.325 1.03-.488 1.551-.488zm14.66 10.134V8.262c0-.674-.092-1.18-.276-1.516-.185-.337-.476-.506-.875-.506-.527 0-.914.226-1.16.677-.246.451-.37 1.157-.37 2.118v4.64h-3.445V8.263c0-.674-.087-1.18-.263-1.516-.176-.337-.46-.506-.853-.506-.539 0-.931.24-1.177.72-.247.481-.37 1.267-.37 2.356v4.36h-3.436V3.718h2.593l.43 1.23h.202c.264-.457.646-.805 1.147-1.046.501-.24 1.071-.36 1.71-.36 1.435 0 2.443.437 3.023 1.31h.273c.281-.41.672-.731 1.173-.963.501-.231 1.053-.347 1.657-.347 1.178 0 2.048.302 2.61.905.563.604.844 1.52.844 2.751v6.478h-3.437zm13.465-3.059c0 1.067-.363 1.872-1.09 2.417-.726.545-1.77.818-3.128.818-.739 0-1.38-.04-1.925-.12-.545-.078-1.102-.223-1.67-.434v-2.751c.533.234 1.118.428 1.753.58.636.152 1.203.228 1.7.228.745 0 1.117-.17 1.117-.51 0-.175-.104-.332-.312-.47-.208-.137-.813-.405-1.815-.804-.914-.375-1.553-.801-1.916-1.279-.363-.477-.545-1.082-.545-1.814 0-.926.358-1.647 1.073-2.163.714-.515 1.725-.773 3.032-.773.656 0 1.273.072 1.85.215.577.144 1.176.353 1.797.629l-.931 2.215c-.457-.205-.94-.38-1.45-.523-.51-.144-.926-.216-1.249-.216-.562 0-.843.138-.843.413 0 .17.098.315.294.435.196.12.763.365 1.7.734.698.287 1.218.569 1.56.844.344.275.595.6.757.971.16.372.241.825.241 1.358zM42.889 27.754c-.279 0-.534-.052-.764-.154-.23-.103-.424-.261-.58-.475h-.047c.031.25.047.487.047.71v1.763h-.649v-6.203h.528l.09.585h.03c.168-.234.362-.403.583-.507.221-.105.475-.157.762-.157.567 0 1.006.194 1.314.582.309.388.463.933.463 1.633 0 .703-.157 1.25-.47 1.639-.314.39-.75.584-1.307.584zm-.094-3.887c-.438 0-.754.121-.95.363-.195.243-.295.628-.3 1.157v.144c0 .602.1 1.032.3 1.291.201.26.523.389.966.389.37 0 .66-.15.869-.45.21-.299.314-.712.314-1.238 0-.533-.105-.943-.314-1.228-.21-.285-.505-.428-.885-.428zm6.7 1.664c0 .698-.177 1.243-.528 1.635-.352.392-.837.588-1.457.588-.383 0-.723-.09-1.02-.27-.297-.18-.526-.437-.687-.773-.162-.336-.242-.73-.242-1.18 0-.698.174-1.241.523-1.63.349-.39.833-.585 1.453-.585.6 0 1.075.2 1.428.598.353.399.53.938.53 1.617zm-3.263 0c0 .547.11.964.329 1.25.218.287.54.43.964.43.425 0 .747-.143.967-.428.22-.285.33-.702.33-1.252 0-.544-.11-.957-.33-1.24-.22-.283-.545-.424-.974-.424-.425 0-.745.14-.961.418-.217.279-.325.694-.325 1.246zm7.735 2.145l-.785-2.512c-.05-.154-.142-.503-.278-1.047h-.031c-.104.456-.195.807-.273 1.055l-.809 2.504h-.75l-1.168-4.281h.68l.63 2.457c.145.562.228.941.249 1.136h.03c.03-.148.076-.34.14-.576.063-.236.119-.422.166-.56l.785-2.457h.703l.765 2.457c.146.447.245.824.297 1.128h.032c.01-.093.038-.238.084-.433.045-.195.317-1.246.814-3.152h.672l-1.184 4.28h-.77zm4.535.078c-.633 0-1.132-.193-1.498-.578-.366-.386-.549-.92-.549-1.606 0-.69.17-1.238.51-1.644.34-.406.796-.61 1.369-.61.536 0 .96.177 1.273.53.313.353.47.818.47 1.396v.41h-2.95c.013.503.14.884.38 1.145.242.26.58.39 1.018.39.461 0 .917-.096 1.368-.289v.579c-.23.099-.446.17-.65.212-.205.043-.452.065-.741.065zm-.176-3.895c-.344 0-.618.112-.822.336-.205.224-.325.534-.361.93h2.238c0-.409-.091-.722-.274-.94-.182-.217-.442-.326-.78-.326zm4.809-.543c.19 0 .36.016.511.047l-.09.602c-.176-.04-.333-.059-.468-.059-.346 0-.643.14-.889.422-.246.281-.369.632-.369 1.05v2.298h-.648v-4.281h.535l.074.793h.031c.16-.28.35-.494.574-.645.224-.151.47-.227.739-.227zm2.96 4.438c-.632 0-1.131-.193-1.497-.578-.366-.386-.55-.92-.55-1.606 0-.69.17-1.238.51-1.644.34-.406.797-.61 1.37-.61.536 0 .96.177 1.273.53.313.353.469.818.469 1.396v.41h-2.95c.014.503.14.884.382 1.145.24.26.58.39 1.017.39.461 0 .917-.096 1.367-.289v.579c-.229.099-.446.17-.65.212-.204.043-.451.065-.74.065zm-.175-3.895c-.344 0-.618.112-.822.336-.205.224-.325.534-.362.93h2.239c0-.409-.092-.722-.274-.94-.182-.217-.443-.326-.781-.326zm5.77 3.243h-.036c-.3.434-.747.652-1.343.652-.56 0-.996-.191-1.307-.574-.311-.383-.467-.927-.467-1.633s.156-1.254.469-1.645c.312-.39.747-.586 1.305-.586.58 0 1.026.211 1.335.633h.051l-.027-.308-.016-.301v-1.742h.649v6.078h-.528l-.086-.574zm-1.297.109c.442 0 .763-.12.962-.361.2-.241.3-.63.3-1.166v-.137c0-.607-.102-1.04-.303-1.299-.202-.26-.525-.389-.967-.389-.38 0-.671.148-.873.444-.202.295-.303.713-.303 1.252 0 .547.1.96.3 1.238.201.279.496.418.884.418zm7.355-3.887c.563 0 1 .192 1.31.576.312.385.467.928.467 1.631s-.157 1.25-.47 1.639c-.314.39-.75.584-1.307.584-.279 0-.533-.052-.764-.154-.23-.103-.423-.261-.58-.475h-.047l-.136.55h-.465v-6.077h.648v1.476c0 .33-.01.628-.031.89h.031c.302-.426.75-.64 1.344-.64zm-.094.543c-.442 0-.761.127-.957.381-.195.254-.293.682-.293 1.283 0 .602.1 1.032.301 1.291.2.26.522.389.965.389.398 0 .695-.145.89-.436.196-.29.294-.707.294-1.252 0-.557-.098-.972-.293-1.246-.196-.273-.498-.41-.907-.41zm2.164-.472h.696l.937 2.44c.206.558.334.96.383 1.208h.031c.034-.133.105-.36.213-.682.108-.321.462-1.31 1.06-2.966h.696l-1.84 4.875c-.182.481-.395.823-.639 1.025-.243.202-.542.303-.896.303-.198 0-.393-.022-.586-.067v-.52c.143.032.303.048.48.048.446 0 .764-.25.954-.75l.238-.61-1.727-4.304zm10.508.234c0 .578-.197 1.023-.592 1.334-.394.311-.959.467-1.693.467h-.672v2.246h-.664v-5.711h1.48c1.428 0 2.141.555 2.141 1.664zm-2.957 1.23h.598c.588 0 1.014-.095 1.277-.285.263-.19.395-.495.395-.914 0-.377-.124-.659-.371-.844-.248-.184-.633-.277-1.157-.277h-.742v2.32zm8.711-.093c0 .942-.256 1.663-.767 2.162-.512.498-1.249.748-2.21.748h-1.582v-5.711h1.75c.889 0 1.579.246 2.07.738.493.492.74 1.18.74 2.063zm-.703.023c0-.745-.187-1.306-.56-1.684-.374-.377-.93-.566-1.667-.566h-.964v4.563h.808c.792 0 1.387-.195 1.785-.584.399-.39.598-.966.598-1.729zm2.64 2.887h-.663v-5.711h3.183v.59h-2.52v2.09h2.368v.59h-2.367v2.44zm5.297-3.778h-1.09v3.778h-.648v-3.778h-.765v-.293l.765-.234v-.238c0-1.052.46-1.578 1.38-1.578.226 0 .491.045.796.136l-.168.52c-.25-.08-.464-.121-.64-.121-.245 0-.426.081-.544.244-.117.163-.175.424-.175.783v.278h1.09v.503zm1.43 3.778h-.648v-4.281h.648v4.28zm-.703-5.442c0-.148.036-.257.11-.326.072-.069.163-.103.273-.103.104 0 .194.035.27.105.075.07.113.179.113.324 0 .146-.038.255-.114.327-.075.071-.165.107-.27.107-.109 0-.2-.036-.273-.107-.073-.072-.109-.18-.109-.327zm2.727 5.442h-.649v-6.078h.649v6.078zm2.023 0h-.648v-6.078h.648v6.078zm3.184.078c-.633 0-1.133-.193-1.498-.578-.366-.386-.55-.92-.55-1.606 0-.69.17-1.238.51-1.644.34-.406.797-.61 1.37-.61.536 0 .96.177 1.273.53.313.353.469.818.469 1.396v.41h-2.95c.014.503.14.884.381 1.145.241.26.58.39 1.018.39.461 0 .917-.096 1.367-.289v.579c-.229.099-.446.17-.65.212-.205.043-.451.065-.74.065zm-.176-3.895c-.344 0-.618.112-.822.336-.205.224-.325.534-.362.93h2.239c0-.409-.092-.722-.274-.94-.182-.217-.443-.326-.781-.326zm4.808-.543c.19 0 .361.016.512.047l-.09.602c-.177-.04-.333-.059-.468-.059-.347 0-.643.14-.89.422-.245.281-.368.632-.368 1.05v2.298h-.649v-4.281h.535l.075.793h.03c.16-.28.351-.494.575-.645.224-.151.47-.227.738-.227z" transform="translate(0 .324)"/>
    </g>
</svg>
