<?xml version="1.0" encoding="UTF-8"?>
<svg width="34px" height="34px" viewBox="0 0 34 34" version="1.1" xmlns="http://www.w3.org/2000/svg" xmlns:xlink="http://www.w3.org/1999/xlink">
    <!-- Generator: sketchtool 61.2 (101010) - https://sketch.com -->
    <title>AA22B690-FE3E-4325-BAF1-09A9915BB805</title>
    <desc>Created with sketchtool.</desc>
    <g id="Page-2" stroke="none" stroke-width="1" fill="none" fill-rule="evenodd">
        <g id="DocStock-Main-Page-CEO-Copy-4" transform="translate(-176.000000, -4481.000000)">
            <g id="Stacked-Group-3" transform="translate(176.000000, 4391.000000)">
                <g id="Stacked-Group" transform="translate(0.000000, 38.000000)">
                    <g id="Group-5" transform="translate(0.000000, 32.000000)">
                        <g id="Group-6">
                            <g id="Components/Navigation/question-icon-correct" transform="translate(0.000000, 20.000000)">
                                <g id="question-icon">
                                    <g id="Group">
                                        <rect id="Rectangle" x="0" y="0" width="34" height="34"></rect>
                                        <path d="M17,7.28571429 C11.6437857,7.28571429 7.28571429,11.6437857 7.28571429,17 C7.28571429,22.3562143 11.6437857,26.7142857 17,26.7142857 C22.3562143,26.7142857 26.7142857,22.3562143 26.7142857,17 C26.7142857,11.6437857 22.3562143,7.28571429 17,7.28571429 Z M17,24.2857143 C12.9819286,24.2857143 9.71428571,21.0180714 9.71428571,17 C9.71428571,12.9819286 12.9819286,9.71428571 17,9.71428571 C21.0180714,9.71428571 24.2857143,12.9819286 24.2857143,17 C24.2857143,21.0180714 21.0180714,24.2857143 17,24.2857143 Z M17,19.4285714 C17.6715,19.4285714 18.2142857,19.9713571 18.2142857,20.6428571 C18.2142857,21.3143571 17.6715,21.8571429 17,21.8571429 C16.3297143,21.8571429 15.7857143,21.3143571 15.7857143,20.6428571 C15.7857143,19.9713571 16.3297143,19.4285714 17,19.4285714 Z M20.0867143,13.3122143 C19.9531429,13.1652857 19.3642143,12.7014286 19.1322857,12.5957857 C18.9003571,12.4901429 18.2361429,12.2849286 17.6569286,12.1416429 C17.6569286,12.1416429 17.6569286,12.1416429 16.9562857,12.1416429 C16.4135,12.1416429 16.4135,12.1416429 16.4135,12.1416429 C15.9010714,12.2764286 14.8895714,12.6686429 14.7001429,12.8119286 C14.5107143,12.9552143 13.9521429,13.532 13.838,13.736 C13.7262857,13.94 13.4360714,14.7948571 13.4081429,15.147 C13.3802143,15.4991429 13.9035714,15.7857143 14.5714286,15.7857143 C15.2392857,15.7857143 15.7857143,15.3267143 15.7857143,15.0583571 C15.7857143,14.79 15.8573571,14.3285714 15.8707143,14.2860714 C15.8840714,14.2435714 16.099,14.0043571 16.1961429,13.9448571 C16.2932857,13.8853571 16.5616429,13.7736429 16.7923571,13.6959286 C16.7923571,13.6959286 16.7923571,13.6959286 17.0570714,13.6959286 C17.4529286,13.6959286 17.4529286,13.6959286 17.4529286,13.6959286 C17.7443571,13.8574286 18.2312857,14.3431429 18.2616429,14.5374286 C18.292,14.7317143 18.292,15.2125714 18.2495,15.3121429 C18.2094286,15.4117143 18.0042143,15.7140714 17.9204286,15.7917857 C17.8366429,15.8682857 17.5160714,16.1232857 17.4116429,16.1961429 C17.3072143,16.269 16.9417143,16.5385714 16.8409286,16.6308571 C16.7413571,16.7243571 16.4171429,17.0898571 16.3382143,17.221 C16.2592857,17.3521429 15.9982143,17.8281429 15.9229286,17.9653571 C15.8476429,18.1025714 16.3321429,18.2142857 17,18.2142857 C17.6678571,18.2142857 18.2495,17.9252857 18.2446429,17.8961429 C18.2397857,17.867 18.4717143,17.5998571 18.5737143,17.5197143 C18.6769286,17.4395714 19.0533571,17.1736429 19.1735714,17.0983571 C19.2937857,17.0230714 19.6993571,16.7425714 19.8037857,16.643 C19.9106429,16.5434286 20.2421429,16.1524286 20.3186429,16.0127857 C20.3951429,15.8731429 20.4971429,15.6169286 20.5481429,15.4457143 C20.5991429,15.2745 20.5991429,14.3237143 20.5481429,14.1646429 C20.4971429,14.0055714 20.2202857,13.4591429 20.0867143,13.3122143 Z" id="Shape-Copy-3" fill="#B1CBEE" fill-rule="nonzero"></path>
                                    </g>
                                </g>
                            </g>
                        </g>
                    </g>
                </g>
            </g>
        </g>
    </g>
</svg>