<svg xmlns="http://www.w3.org/2000/svg" width="80" height="80"><defs><linearGradient id="a" x1="50%" x2="50%" y1="0%" y2="100%"><stop offset="0%" stop-color="#42CEFA"/><stop offset="100%" stop-color="#1FA0F2"/></linearGradient></defs><g fill="none" fill-rule="evenodd"><rect width="80" height="80" fill="url(#a)" rx="14"/><path fill="#FFF" fill-rule="nonzero" d="M68 23.324a22.405 22.405 0 01-6.479 1.79 11.398 11.398 0 004.96-6.283 22.647 22.647 0 01-7.17 2.759A11.213 11.213 0 0051.078 18c-6.231 0-11.283 5.089-11.283 11.362 0 .89.1 1.758.292 2.59-9.376-.475-17.69-5-23.254-11.875a11.341 11.341 0 00-1.526 5.712 11.38 11.38 0 005.018 9.458 11.222 11.222 0 01-5.11-1.427v.142c0 5.505 3.89 10.098 9.049 11.144a11.35 11.35 0 01-2.973.398c-.729 0-1.434-.073-2.124-.211 1.436 4.517 5.602 7.803 10.537 7.893a22.534 22.534 0 01-14.012 4.857c-.91 0-1.808-.056-2.691-.156A31.726 31.726 0 0030.294 63c20.755 0 32.1-17.316 32.1-32.333l-.037-1.471A22.621 22.621 0 0068 23.324z"/></g></svg>